<?xml version="1.0" encoding="UTF-8" standalone="no"?>
<!-- Created with Inkscape (http://www.inkscape.org/) -->

<svg
   width="194.87141mm"
   height="194.87141mm"
   viewBox="0 0 194.87141 194.87141"
   version="1.1"
   id="svg1"
   xml:space="preserve"
   inkscape:version="1.4.3 (0d15f75, 2025-12-25)"
   sodipodi:docname="marcaai.svg"
   inkscape:export-filename="marcaaibanner.svg"
   inkscape:export-xdpi="96"
   inkscape:export-ydpi="96"
   xmlns:inkscape="http://www.inkscape.org/namespaces/inkscape"
   xmlns:sodipodi="http://sodipodi.sourceforge.net/DTD/sodipodi-0.dtd"
   xmlns:xlink="http://www.w3.org/1999/xlink"
   xmlns="http://www.w3.org/2000/svg"
   xmlns:svg="http://www.w3.org/2000/svg"><sodipodi:namedview
     id="namedview1"
     pagecolor="#505050"
     bordercolor="#eeeeee"
     borderopacity="1"
     inkscape:showpageshadow="0"
     inkscape:pageopacity="0"
     inkscape:pagecheckerboard="0"
     inkscape:deskcolor="#505050"
     inkscape:document-units="mm"
     inkscape:zoom="0.72774481"
     inkscape:cx="477.50255"
     inkscape:cy="359.32925"
     inkscape:window-width="1920"
     inkscape:window-height="991"
     inkscape:window-x="-9"
     inkscape:window-y="-9"
     inkscape:window-maximized="1"
     inkscape:current-layer="layer1"><inkscape:page
       x="-4.5019533e-06"
       y="-516.15021"
       width="1112.6299"
       height="711.02161"
       id="page2"
       margin="0"
       bleed="0" /></sodipodi:namedview><defs
     id="defs1"><linearGradient
       id="linearGradient1"
       inkscape:collect="always"><stop
         style="stop-color:#5696fc;stop-opacity:1;"
         offset="0"
         id="stop1" /><stop
         style="stop-color:#5696fc;stop-opacity:1;"
         offset="1"
         id="stop2" /></linearGradient><radialGradient
       inkscape:collect="always"
       xlink:href="#linearGradient1"
       id="radialGradient2"
       cx="151.35912"
       cy="86.912033"
       fx="151.35912"
       fy="86.912033"
       r="48.481598"
       gradientTransform="matrix(0.76003029,0.41244793,-0.45706887,0.84225464,76.046387,-47.164301)"
       gradientUnits="userSpaceOnUse" /><radialGradient
       inkscape:collect="always"
       xlink:href="#linearGradient1"
       id="radialGradient2-4"
       cx="151.35912"
       cy="86.912033"
       fx="151.35912"
       fy="86.912033"
       r="48.481598"
       gradientTransform="matrix(0.76003029,0.41244793,-0.45706887,0.84225464,15.02395,242.51272)"
       gradientUnits="userSpaceOnUse" /><radialGradient
       inkscape:collect="always"
       xlink:href="#linearGradient1"
       id="radialGradient2-4-7"
       cx="151.35912"
       cy="86.912033"
       fx="151.35912"
       fy="86.912033"
       r="48.481598"
       gradientTransform="matrix(0.76003029,0.41244793,-0.45706887,0.84225464,15.02395,242.51272)"
       gradientUnits="userSpaceOnUse" /><radialGradient
       inkscape:collect="always"
       xlink:href="#linearGradient1"
       id="radialGradient2-4-7-3"
       cx="151.35912"
       cy="86.912033"
       fx="151.35912"
       fy="86.912033"
       r="48.481598"
       gradientTransform="matrix(0.76003029,0.41244793,-0.45706887,0.84225464,15.02395,242.51272)"
       gradientUnits="userSpaceOnUse" /><radialGradient
       inkscape:collect="always"
       xlink:href="#linearGradient1"
       id="radialGradient2-4-3"
       cx="151.35912"
       cy="86.912033"
       fx="151.35912"
       fy="86.912033"
       r="48.481598"
       gradientTransform="matrix(0.76003029,0.41244793,-0.45706887,0.84225464,15.02395,242.51272)"
       gradientUnits="userSpaceOnUse" /></defs><g
     inkscape:label="Camada 1"
     inkscape:groupmode="layer"
     id="layer1"
     transform="translate(323.20486,-549.34833)"><g
       id="g4"
       transform="matrix(1.3997259,0,0,1.3997259,-42.44177,-28.930473)"><path
         style="fill:#fd953a;fill-opacity:1;stroke:#fd953a;stroke-width:6.27063;stroke-linejoin:bevel;stroke-dasharray:none;stroke-opacity:1"
         d="M 187.05744,123.57255 H 175.54605"
         id="path2" /><path
         style="fill:#fd953a;fill-opacity:1;stroke:#fd953a;stroke-width:6.27063;stroke-linejoin:bevel;stroke-dasharray:none;stroke-opacity:1"
         d="M 187.05744,123.57255 H 175.54605"
         id="path2-5"
         inkscape:transform-center-x="-68.214386"
         inkscape:transform-center-y="-3.1235362e-06" /><path
         style="fill:#fd953a;fill-opacity:1;stroke:#fd953a;stroke-width:6.27063;stroke-linejoin:bevel;stroke-dasharray:none;stroke-opacity:1"
         d="M 181.41262,95.184267 170.7769,99.588085"
         id="path2-5-2"
         inkscape:transform-center-x="-63.025311"
         inkscape:transform-center-y="-26.096218" /><path
         style="fill:#fd953a;fill-opacity:1;stroke:#fd953a;stroke-width:6.27063;stroke-linejoin:bevel;stroke-dasharray:none;stroke-opacity:1"
         d="m 166.67775,72.514534 -8.34265,7.931733"
         id="path2-5-2-8"
         inkscape:transform-center-x="-49.436986"
         inkscape:transform-center-y="-47.001988" /><path
         style="fill:#fd953a;fill-opacity:1;stroke:#fd953a;stroke-width:6.27063;stroke-linejoin:bevel;stroke-dasharray:none;stroke-opacity:1"
         d="m 145.16473,56.80185 -4.97019,10.383131"
         id="path2-5-2-8-0"
         inkscape:transform-center-x="-29.452406"
         inkscape:transform-center-y="-61.528515" /><path
         style="fill:#fd953a;fill-opacity:1;stroke:#fd953a;stroke-width:6.27063;stroke-linejoin:bevel;stroke-dasharray:none;stroke-opacity:1"
         d="M 187.14417,124.20302 H 175.63278"
         id="path2-9" /><path
         style="fill:#fd953a;fill-opacity:1;stroke:#fd953a;stroke-width:6.27063;stroke-linejoin:bevel;stroke-dasharray:none;stroke-opacity:1"
         d="M 187.14417,124.20302 H 175.63278"
         id="path2-5-6"
         inkscape:transform-center-x="-68.214386"
         inkscape:transform-center-y="3.1128594e-06" /><path
         style="fill:#fd953a;fill-opacity:1;stroke:#fd953a;stroke-width:6.27063;stroke-linejoin:bevel;stroke-dasharray:none;stroke-opacity:1"
         d="m 181.49935,152.59112 -10.63572,-4.40379"
         id="path2-5-2-9"
         inkscape:transform-center-x="-63.025311"
         inkscape:transform-center-y="26.096044" /><path
         style="fill:#fd953a;fill-opacity:1;stroke:#fd953a;stroke-width:6.27063;stroke-linejoin:bevel;stroke-dasharray:none;stroke-opacity:1"
         d="m 166.76448,175.26071 -8.34265,-7.93168"
         id="path2-5-2-8-4"
         inkscape:transform-center-x="-49.436986"
         inkscape:transform-center-y="47.001675" /><path
         style="fill:#fd953a;fill-opacity:1;stroke:#fd953a;stroke-width:6.27063;stroke-linejoin:bevel;stroke-dasharray:none;stroke-opacity:1"
         d="m 145.25146,190.97329 -4.97019,-10.38307"
         id="path2-5-2-8-0-6"
         inkscape:transform-center-x="-29.452406"
         inkscape:transform-center-y="61.528106" /><path
         style="opacity:1;fill:url(#radialGradient2);stroke:none;stroke-width:0.777023;stroke-opacity:1"
         d="m 80.624524,160.02892 c -6.454118,-2.14499 -14.503122,-7.11499 -15.527325,-9.58762 -0.36419,-0.87924 7e-5,-3.70287 2.27915,-17.6673 1.278342,-7.83268 1.796718,-11.07127 2.764127,-17.26934 3.829823,-24.537073 4.048268,-25.651239 5.25326,-26.79427 l 0.830148,-0.787475 8.05956,0.06791 c 9.27594,0.07816 9.11192,0.03645 10.8302,2.757119 0.75012,1.187727 6.847816,13.370806 9.972786,19.925416 2.19101,4.59564 7.89738,16.04899 8.19373,16.44574 0.2859,0.38278 0.61209,-0.20944 4.92564,-8.94305 15.2199,-30.815585 13.90992,-28.327448 15.49253,-29.426105 1.42073,-0.986267 16.42383,-1.22789 17.66078,-0.284428 1.33927,1.021513 1.45612,1.511861 3.57749,15.012283 1.76265,11.21752 2.10775,13.37394 3.80007,23.74534 3.53971,21.69326 3.65671,22.74584 2.66558,23.98166 -2.11641,2.6389 -9.41219,6.95615 -14.7298,8.71629 -2.44086,0.80793 -2.45988,0.79744 -2.91327,-1.60763 -0.57671,-3.05917 -3.38001,-20.45496 -4.74512,-29.44561 -1.47738,-9.73003 -1.61811,-10.40955 -2.09494,-10.11485 -0.2045,0.12639 -3.00063,5.57965 -4.07949,7.95618 -1.22368,2.69555 -13.58964,27.41227 -14.37458,28.7315 -2.26802,3.81181 -7.32857,4.00966 -9.67618,0.37831 -0.8888,-1.37484 -10.763566,-21.05326 -15.613546,-31.1147 -2.49839,-5.18298 -3.20543,-6.39487 -3.47575,-5.9575 -0.11805,0.19103 -0.67736,3.33156 -1.23498,6.93445 -3.59765,23.24538 -5.15477,32.81756 -5.51957,33.93097 -0.32356,0.98755 -0.50487,1.02011 -2.3205,0.41671 z"
         id="path4"
         sodipodi:nodetypes="ssssscssssssssssssssssssssss" /><path
         id="path5"
         style="opacity:1;fill:none;fill-opacity:1;stroke:#fd953a;stroke-width:10.8511;stroke-linecap:round;stroke-linejoin:round;stroke-dasharray:none;stroke-opacity:1"
         d="M 123.47922,56.037674 C 118.5404,54.929351 117.939,55.128951 112.87735,55.128935 74.925433,55.128794 44.15921,85.894783 44.159062,123.8467 c -1.42e-4,37.95212 30.766166,68.71843 68.718288,68.71829 5.1465,6e-5 8.02727,-0.12815 13.0447,-1.27352"
         sodipodi:nodetypes="csscc" /><path
         style="opacity:1;fill:#fd953a;fill-opacity:1;stroke:#fd953a;stroke-width:1.96784;stroke-linecap:round;stroke-linejoin:round;stroke-dasharray:none;stroke-opacity:1"
         d="m 119.46087,45.37012 16.22586,14.388309 -21.24616,4.347707 z"
         id="path6" /></g><text
       xml:space="preserve"
       style="font-weight:500;font-size:139.593px;font-family:Lexend;-inkscape-font-specification:'Lexend Medium';text-align:start;writing-mode:lr-tb;direction:ltr;text-anchor:start;fill:#5696fc;stroke:none;stroke-width:2.61738;stroke-opacity:1"
       x="227.07443"
       y="234.68457"
       id="text1"
       inkscape:export-filename="text1.svg"
       inkscape:export-xdpi="96"
       inkscape:export-ydpi="96"><tspan
         sodipodi:role="line"
         id="tspan1"
         style="font-style:normal;font-variant:normal;font-weight:500;font-stretch:normal;font-family:Urbanist;-inkscape-font-specification:'Urbanist Medium';stroke:none;stroke-width:2.61738;stroke-opacity:1"
         x="227.07443"
         y="234.68457"><tspan
           style="font-style:normal;font-variant:normal;font-weight:bold;font-stretch:normal;font-family:Urbanist;-inkscape-font-specification:'Urbanist Bold';stroke:none;stroke-width:2.61738;stroke-opacity:1"
           id="tspan2">marca</tspan><tspan
           style="font-style:normal;font-variant:normal;font-weight:800;font-stretch:normal;font-family:Sora;-inkscape-font-specification:'Sora Ultra-Bold';fill:#fd953a;fill-opacity:1;stroke:none;stroke-width:2.61738;stroke-opacity:1"
           id="tspan3">Aí</tspan></tspan></text><g
       id="g2"
       transform="matrix(1.0443072,0,0,1.0443072,-279.98583,6.9498864)"><path
         id="path5-2"
         style="fill:none;fill-opacity:1;stroke:#fd953a;stroke-width:10.8511;stroke-linecap:round;stroke-linejoin:round;stroke-dasharray:none;stroke-opacity:1"
         d="m 62.45678,345.71469 c -4.93882,-1.10832 -5.54022,-0.90872 -10.60187,-0.90873 -37.95192,-1.5e-4 -68.71814,30.76584 -68.71829,68.71776 -1.4e-4,37.95212 30.76617,68.71843 68.71829,68.71829 5.1465,6e-5 8.02727,-0.12815 13.0447,-1.27352"
         sodipodi:nodetypes="csscc" /><g
         id="g1"><path
           style="fill:#fd953a;fill-opacity:1;stroke:#fd953a;stroke-width:6.27063;stroke-linejoin:bevel;stroke-dasharray:none;stroke-opacity:1"
           d="M 126.035,413.24957 H 114.52361"
           id="path2-55" /><path
           style="fill:#fd953a;fill-opacity:1;stroke:#fd953a;stroke-width:6.27063;stroke-linejoin:bevel;stroke-dasharray:none;stroke-opacity:1"
           d="M 126.035,413.24957 H 114.52361"
           id="path2-5-1"
           inkscape:transform-center-x="-68.214386"
           inkscape:transform-center-y="-3.1235362e-06" /><path
           style="fill:#fd953a;fill-opacity:1;stroke:#fd953a;stroke-width:6.27063;stroke-linejoin:bevel;stroke-dasharray:none;stroke-opacity:1"
           d="m 120.39018,384.86129 -10.63572,4.40382"
           id="path2-5-2-7"
           inkscape:transform-center-x="-63.025311"
           inkscape:transform-center-y="-26.096218" /><path
           style="fill:#fd953a;fill-opacity:1;stroke:#fd953a;stroke-width:6.27063;stroke-linejoin:bevel;stroke-dasharray:none;stroke-opacity:1"
           d="m 105.65531,362.19155 -8.34265,7.93174"
           id="path2-5-2-8-1"
           inkscape:transform-center-x="-49.436986"
           inkscape:transform-center-y="-47.001988" /><path
           style="fill:#fd953a;fill-opacity:1;stroke:#fd953a;stroke-width:6.27063;stroke-linejoin:bevel;stroke-dasharray:none;stroke-opacity:1"
           d="M 84.14229,346.47887 79.1721,356.862"
           id="path2-5-2-8-0-1"
           inkscape:transform-center-x="-29.452406"
           inkscape:transform-center-y="-61.528515" /><path
           style="fill:#fd953a;fill-opacity:1;stroke:#fd953a;stroke-width:6.27063;stroke-linejoin:bevel;stroke-dasharray:none;stroke-opacity:1"
           d="M 126.12173,413.88004 H 114.61034"
           id="path2-9-5" /><path
           style="fill:#fd953a;fill-opacity:1;stroke:#fd953a;stroke-width:6.27063;stroke-linejoin:bevel;stroke-dasharray:none;stroke-opacity:1"
           d="M 126.12173,413.88004 H 114.61034"
           id="path2-5-6-2"
           inkscape:transform-center-x="-68.214386"
           inkscape:transform-center-y="3.1128594e-06" /><path
           style="fill:#fd953a;fill-opacity:1;stroke:#fd953a;stroke-width:6.27063;stroke-linejoin:bevel;stroke-dasharray:none;stroke-opacity:1"
           d="m 120.47691,442.26814 -10.63572,-4.40379"
           id="path2-5-2-9-7"
           inkscape:transform-center-x="-63.025311"
           inkscape:transform-center-y="26.096044" /><path
           style="fill:#fd953a;fill-opacity:1;stroke:#fd953a;stroke-width:6.27063;stroke-linejoin:bevel;stroke-dasharray:none;stroke-opacity:1"
           d="m 105.74204,464.93773 -8.34265,-7.93168"
           id="path2-5-2-8-4-6"
           inkscape:transform-center-x="-49.436986"
           inkscape:transform-center-y="47.001675" /><path
           style="fill:#fd953a;fill-opacity:1;stroke:#fd953a;stroke-width:6.27063;stroke-linejoin:bevel;stroke-dasharray:none;stroke-opacity:1"
           d="M 84.22902,480.65031 79.25883,470.26724"
           id="path2-5-2-8-0-6-1"
           inkscape:transform-center-x="-29.452406"
           inkscape:transform-center-y="61.528106" /><path
           style="fill:url(#radialGradient2-4);stroke:none;stroke-width:0.777023;stroke-opacity:1"
           d="m 19.60209,449.70594 c -6.45412,-2.14499 -14.5031302,-7.11499 -15.5273302,-9.58762 -0.36419,-0.87924 7e-5,-3.70287 2.27915,-17.6673 1.27834,-7.83268 1.79672,-11.07127 2.76413,-17.26934 C 12.94786,380.64461 13.16631,379.53044 14.3713,378.38741 l 0.83015,-0.78748 8.05956,0.0679 c 9.27594,0.0782 9.11192,0.0365 10.8302,2.75712 0.75012,1.18773 6.84781,13.37081 9.97278,19.92542 2.19101,4.59564 7.89738,16.04899 8.19373,16.44574 0.2859,0.38278 0.61209,-0.20944 4.92564,-8.94305 15.2199,-30.81559 13.90992,-28.32745 15.49253,-29.42611 1.42073,-0.98626 16.42383,-1.22789 17.66078,-0.28442 1.33927,1.02151 1.45612,1.51186 3.57749,15.01228 1.76265,11.21752 2.10775,13.37394 3.80007,23.74534 3.53971,21.69326 3.65671,22.74584 2.66558,23.98166 -2.11641,2.6389 -9.41219,6.95615 -14.7298,8.71629 -2.44086,0.80793 -2.45988,0.79744 -2.91327,-1.60763 -0.57671,-3.05917 -3.38001,-20.45496 -4.74512,-29.44561 -1.47738,-9.73003 -1.61811,-10.40955 -2.09494,-10.11485 -0.2045,0.12639 -3.00063,5.57965 -4.07949,7.95618 -1.22368,2.69555 -13.58964,27.41227 -14.37458,28.7315 -2.26802,3.81181 -7.32857,4.00966 -9.67618,0.37831 -0.8888,-1.37484 -10.76356,-21.05326 -15.61354,-31.1147 -2.49839,-5.18298 -3.20543,-6.39487 -3.47575,-5.9575 -0.11805,0.19103 -0.67736,3.33156 -1.23498,6.93445 -3.59765,23.24538 -5.15477,32.81756 -5.51957,33.93097 -0.32356,0.98755 -0.50487,1.02011 -2.3205,0.41671 z"
           id="path4-4"
           sodipodi:nodetypes="ssssscssssssssssssssssssssss" /><path
           style="fill:#fd953a;fill-opacity:1;stroke:#fd953a;stroke-width:1.96784;stroke-linecap:round;stroke-linejoin:round;stroke-dasharray:none;stroke-opacity:1"
           d="m 58.43843,335.04714 16.22586,14.38831 -21.24616,4.34771 z"
           id="path6-3" /></g></g><text
       xml:space="preserve"
       style="font-weight:500;font-size:37.3659px;font-family:Lexend;-inkscape-font-specification:'Lexend Medium';text-align:start;writing-mode:lr-tb;direction:ltr;text-anchor:start;fill:#5696fc;stroke:none;stroke-width:0.700611;stroke-opacity:1"
       x="-299.14627"
       y="546.80334"
       id="text1-2"
       inkscape:export-filename="text1.svg"
       inkscape:export-xdpi="96"
       inkscape:export-ydpi="96"><tspan
         sodipodi:role="line"
         id="tspan1-2"
         style="font-style:normal;font-variant:normal;font-weight:500;font-stretch:normal;font-family:Urbanist;-inkscape-font-specification:'Urbanist Medium';stroke:none;stroke-width:0.700611;stroke-opacity:1"
         x="-299.14627"
         y="546.80334"><tspan
           style="font-style:normal;font-variant:normal;font-weight:bold;font-stretch:normal;font-family:Urbanist;-inkscape-font-specification:'Urbanist Bold';stroke:none;stroke-width:0.700611;stroke-opacity:1"
           id="tspan2-1">marca</tspan><tspan
           style="font-style:normal;font-variant:normal;font-weight:800;font-stretch:normal;font-family:Sora;-inkscape-font-specification:'Sora Ultra-Bold';fill:#fd953a;fill-opacity:1;stroke:none;stroke-width:0.700611;stroke-opacity:1"
           id="tspan3-6">Aí</tspan></tspan></text><rect
       style="fill:#16191e;fill-opacity:1;stroke-width:2.64583;stroke-linecap:round;stroke-linejoin:round"
       id="rect2-5"
       width="194.87141"
       height="194.87141"
       x="-323.20486"
       y="549.34833" /><g
       id="g2-0"
       transform="matrix(1.0443072,0,0,1.0443072,-279.98584,201.82129)"><path
         id="path5-2-9"
         style="fill:none;fill-opacity:1;stroke:#fd953a;stroke-width:10.8511;stroke-linecap:round;stroke-linejoin:round;stroke-dasharray:none;stroke-opacity:1"
         d="m 62.45678,345.71469 c -4.93882,-1.10832 -5.54022,-0.90872 -10.60187,-0.90873 -37.95192,-1.5e-4 -68.71814,30.76584 -68.71829,68.71776 -1.4e-4,37.95212 30.76617,68.71843 68.71829,68.71829 5.1465,6e-5 8.02727,-0.12815 13.0447,-1.27352"
         sodipodi:nodetypes="csscc" /><g
         id="g1-4"><path
           style="fill:#fd953a;fill-opacity:1;stroke:#fd953a;stroke-width:6.27063;stroke-linejoin:bevel;stroke-dasharray:none;stroke-opacity:1"
           d="M 126.035,413.24957 H 114.52361"
           id="path2-55-7" /><path
           style="fill:#fd953a;fill-opacity:1;stroke:#fd953a;stroke-width:6.27063;stroke-linejoin:bevel;stroke-dasharray:none;stroke-opacity:1"
           d="M 126.035,413.24957 H 114.52361"
           id="path2-5-1-83"
           inkscape:transform-center-x="-68.214386"
           inkscape:transform-center-y="-3.1235362e-06" /><path
           style="fill:#fd953a;fill-opacity:1;stroke:#fd953a;stroke-width:6.27063;stroke-linejoin:bevel;stroke-dasharray:none;stroke-opacity:1"
           d="m 120.39018,384.86129 -10.63572,4.40382"
           id="path2-5-2-7-5"
           inkscape:transform-center-x="-63.025311"
           inkscape:transform-center-y="-26.096218" /><path
           style="fill:#fd953a;fill-opacity:1;stroke:#fd953a;stroke-width:6.27063;stroke-linejoin:bevel;stroke-dasharray:none;stroke-opacity:1"
           d="m 105.65531,362.19155 -8.34265,7.93174"
           id="path2-5-2-8-1-1"
           inkscape:transform-center-x="-49.436986"
           inkscape:transform-center-y="-47.001988" /><path
           style="fill:#fd953a;fill-opacity:1;stroke:#fd953a;stroke-width:6.27063;stroke-linejoin:bevel;stroke-dasharray:none;stroke-opacity:1"
           d="M 84.14229,346.47887 79.1721,356.862"
           id="path2-5-2-8-0-1-20"
           inkscape:transform-center-x="-29.452406"
           inkscape:transform-center-y="-61.528515" /><path
           style="fill:#fd953a;fill-opacity:1;stroke:#fd953a;stroke-width:6.27063;stroke-linejoin:bevel;stroke-dasharray:none;stroke-opacity:1"
           d="M 126.12173,413.88004 H 114.61034"
           id="path2-9-5-1" /><path
           style="fill:#fd953a;fill-opacity:1;stroke:#fd953a;stroke-width:6.27063;stroke-linejoin:bevel;stroke-dasharray:none;stroke-opacity:1"
           d="M 126.12173,413.88004 H 114.61034"
           id="path2-5-6-2-64"
           inkscape:transform-center-x="-68.214386"
           inkscape:transform-center-y="3.1128594e-06" /><path
           style="fill:#fd953a;fill-opacity:1;stroke:#fd953a;stroke-width:6.27063;stroke-linejoin:bevel;stroke-dasharray:none;stroke-opacity:1"
           d="m 120.47691,442.26814 -10.63572,-4.40379"
           id="path2-5-2-9-7-06"
           inkscape:transform-center-x="-63.025311"
           inkscape:transform-center-y="26.096044" /><path
           style="fill:#fd953a;fill-opacity:1;stroke:#fd953a;stroke-width:6.27063;stroke-linejoin:bevel;stroke-dasharray:none;stroke-opacity:1"
           d="m 105.74204,464.93773 -8.34265,-7.93168"
           id="path2-5-2-8-4-6-18"
           inkscape:transform-center-x="-49.436986"
           inkscape:transform-center-y="47.001675" /><path
           style="fill:#fd953a;fill-opacity:1;stroke:#fd953a;stroke-width:6.27063;stroke-linejoin:bevel;stroke-dasharray:none;stroke-opacity:1"
           d="M 84.22902,480.65031 79.25883,470.26724"
           id="path2-5-2-8-0-6-1-9"
           inkscape:transform-center-x="-29.452406"
           inkscape:transform-center-y="61.528106" /><path
           style="fill:url(#radialGradient2-4-3);stroke:none;stroke-width:0.777023;stroke-opacity:1"
           d="m 19.60209,449.70594 c -6.45412,-2.14499 -14.5031302,-7.11499 -15.5273302,-9.58762 -0.36419,-0.87924 7e-5,-3.70287 2.27915,-17.6673 1.27834,-7.83268 1.79672,-11.07127 2.76413,-17.26934 C 12.94786,380.64461 13.16631,379.53044 14.3713,378.38741 l 0.83015,-0.78748 8.05956,0.0679 c 9.27594,0.0782 9.11192,0.0365 10.8302,2.75712 0.75012,1.18773 6.84781,13.37081 9.97278,19.92542 2.19101,4.59564 7.89738,16.04899 8.19373,16.44574 0.2859,0.38278 0.61209,-0.20944 4.92564,-8.94305 15.2199,-30.81559 13.90992,-28.32745 15.49253,-29.42611 1.42073,-0.98626 16.42383,-1.22789 17.66078,-0.28442 1.33927,1.02151 1.45612,1.51186 3.57749,15.01228 1.76265,11.21752 2.10775,13.37394 3.80007,23.74534 3.53971,21.69326 3.65671,22.74584 2.66558,23.98166 -2.11641,2.6389 -9.41219,6.95615 -14.7298,8.71629 -2.44086,0.80793 -2.45988,0.79744 -2.91327,-1.60763 -0.57671,-3.05917 -3.38001,-20.45496 -4.74512,-29.44561 -1.47738,-9.73003 -1.61811,-10.40955 -2.09494,-10.11485 -0.2045,0.12639 -3.00063,5.57965 -4.07949,7.95618 -1.22368,2.69555 -13.58964,27.41227 -14.37458,28.7315 -2.26802,3.81181 -7.32857,4.00966 -9.67618,0.37831 -0.8888,-1.37484 -10.76356,-21.05326 -15.61354,-31.1147 -2.49839,-5.18298 -3.20543,-6.39487 -3.47575,-5.9575 -0.11805,0.19103 -0.67736,3.33156 -1.23498,6.93445 -3.59765,23.24538 -5.15477,32.81756 -5.51957,33.93097 -0.32356,0.98755 -0.50487,1.02011 -2.3205,0.41671 z"
           id="path4-4-8"
           sodipodi:nodetypes="ssssscssssssssssssssssssssss" /><path
           style="fill:#fd953a;fill-opacity:1;stroke:#fd953a;stroke-width:1.96784;stroke-linecap:round;stroke-linejoin:round;stroke-dasharray:none;stroke-opacity:1"
           d="m 58.43843,335.04714 16.22586,14.38831 -21.24616,4.34771 z"
           id="path6-3-4" /></g></g><text
       xml:space="preserve"
       style="font-weight:500;font-size:37.3659px;font-family:Lexend;-inkscape-font-specification:'Lexend Medium';text-align:start;writing-mode:lr-tb;direction:ltr;text-anchor:start;fill:#5696fc;stroke:none;stroke-width:0.700611;stroke-opacity:1"
       x="-299.14627"
       y="741.67474"
       id="text1-2-1"
       inkscape:export-filename="text1.svg"
       inkscape:export-xdpi="96"
       inkscape:export-ydpi="96"><tspan
         sodipodi:role="line"
         id="tspan1-2-43"
         style="font-style:normal;font-variant:normal;font-weight:500;font-stretch:normal;font-family:Urbanist;-inkscape-font-specification:'Urbanist Medium';stroke:none;stroke-width:0.700611;stroke-opacity:1"
         x="-299.14627"
         y="741.67474"><tspan
           style="font-style:normal;font-variant:normal;font-weight:bold;font-stretch:normal;font-family:Urbanist;-inkscape-font-specification:'Urbanist Bold';stroke:none;stroke-width:0.700611;stroke-opacity:1"
           id="tspan2-1-9">marca</tspan><tspan
           style="font-style:normal;font-variant:normal;font-weight:800;font-stretch:normal;font-family:Sora;-inkscape-font-specification:'Sora Ultra-Bold';fill:#fd953a;fill-opacity:1;stroke:none;stroke-width:0.700611;stroke-opacity:1"
           id="tspan3-6-8">Aí</tspan></tspan></text><path
       id="path5-2-54"
       style="fill:none;fill-opacity:1;stroke:#000000;stroke-width:11.3319;stroke-linecap:round;stroke-linejoin:round;stroke-dasharray:none;stroke-opacity:1"
       d="m -19.890358,562.85365 c -5.15765,-1.15743 -5.7857,-0.94898 -11.07161,-0.94899 -39.63347,-1.6e-4 -71.762852,32.12898 -71.763012,71.76245 -1.5e-4,39.63367 32.129332,71.76315 71.763012,71.763 5.37452,7e-5 8.38293,-0.13382 13.62267,-1.32994"
       sodipodi:nodetypes="csscc" /><path
       style="fill:#fd953a;fill-opacity:1;stroke:#000000;stroke-width:6.54846;stroke-linejoin:bevel;stroke-dasharray:none;stroke-opacity:1"
       d="M 46.504832,633.38081 H 34.483402"
       id="path2-55-0" /><path
       style="fill:#fd953a;fill-opacity:1;stroke:#000000;stroke-width:6.54846;stroke-linejoin:bevel;stroke-dasharray:none;stroke-opacity:1"
       d="M 46.504832,633.38081 H 34.483402"
       id="path2-5-1-9"
       inkscape:transform-center-x="-68.214386"
       inkscape:transform-center-y="-3.1235362e-06" /><path
       style="fill:#fd953a;fill-opacity:1;stroke:#000000;stroke-width:6.54846;stroke-linejoin:bevel;stroke-dasharray:none;stroke-opacity:1"
       d="m 40.609902,603.73473 -11.10696,4.59894"
       id="path2-5-2-7-7"
       inkscape:transform-center-x="-63.025311"
       inkscape:transform-center-y="-26.096218" /><path
       style="fill:#fd953a;fill-opacity:1;stroke:#000000;stroke-width:6.54846;stroke-linejoin:bevel;stroke-dasharray:none;stroke-opacity:1"
       d="m 25.222172,580.06055 -8.71229,8.28318"
       id="path2-5-2-8-1-3"
       inkscape:transform-center-x="-49.436986"
       inkscape:transform-center-y="-47.001988" /><path
       style="fill:#fd953a;fill-opacity:1;stroke:#000000;stroke-width:6.54846;stroke-linejoin:bevel;stroke-dasharray:none;stroke-opacity:1"
       d="M 2.7559721,563.65169 -2.434438,574.49487"
       id="path2-5-2-8-0-1-7"
       inkscape:transform-center-x="-29.452406"
       inkscape:transform-center-y="-61.528515" /><path
       style="fill:#fd953a;fill-opacity:1;stroke:#000000;stroke-width:6.54846;stroke-linejoin:bevel;stroke-dasharray:none;stroke-opacity:1"
       d="M 46.595402,634.03922 H 34.573972"
       id="path2-9-5-2" /><path
       style="fill:#fd953a;fill-opacity:1;stroke:#000000;stroke-width:6.54846;stroke-linejoin:bevel;stroke-dasharray:none;stroke-opacity:1"
       d="M 46.595402,634.03922 H 34.573972"
       id="path2-5-6-2-6"
       inkscape:transform-center-x="-68.214386"
       inkscape:transform-center-y="3.1128594e-06" /><path
       style="fill:#fd953a;fill-opacity:1;stroke:#000000;stroke-width:6.54846;stroke-linejoin:bevel;stroke-dasharray:none;stroke-opacity:1"
       d="M 40.700472,663.68511 29.593522,659.0862"
       id="path2-5-2-9-7-0"
       inkscape:transform-center-x="-63.025311"
       inkscape:transform-center-y="26.096044" /><path
       style="fill:#fd953a;fill-opacity:1;stroke:#000000;stroke-width:6.54846;stroke-linejoin:bevel;stroke-dasharray:none;stroke-opacity:1"
       d="m 25.312742,687.35913 -8.71229,-8.28311"
       id="path2-5-2-8-4-6-1"
       inkscape:transform-center-x="-49.436986"
       inkscape:transform-center-y="47.001675" /><path
       style="fill:#fd953a;fill-opacity:1;stroke:#000000;stroke-width:6.54846;stroke-linejoin:bevel;stroke-dasharray:none;stroke-opacity:1"
       d="M 2.8465421,703.76789 -2.343858,692.92477"
       id="path2-5-2-8-0-6-1-6"
       inkscape:transform-center-x="-29.452406"
       inkscape:transform-center-y="61.528106" /><path
       style="fill:#000000;fill-opacity:1;stroke:none;stroke-width:0.811451;stroke-opacity:1"
       d="m -64.643828,671.45246 c -6.74008,-2.24003 -15.14572,-7.43023 -16.2153,-10.01242 -0.38033,-0.9182 7e-5,-3.86693 2.38013,-18.45009 1.33498,-8.17972 1.87633,-11.56181 2.8866,-18.03449 3.99951,-25.62424 4.22764,-26.78778 5.48602,-27.98145 l 0.86693,-0.82237 8.41666,0.0709 c 9.68693,0.0817 9.51564,0.0381 11.31006,2.87928 0.78335,1.24036 7.15121,13.96324 10.41464,20.80826 2.28809,4.79926 8.24729,16.76008 8.55677,17.17441 0.29857,0.39974 0.63921,-0.21872 5.14388,-9.33929 15.8942598,-32.18095 14.52623,-29.58256 16.1789698,-30.7299 1.48367,-1.02996 17.1515202,-1.2823 18.4432702,-0.29702 1.39861,1.06677 1.52064,1.57884 3.736,15.67743 1.84075,11.71454 2.20114,13.9665 3.96844,24.79743 3.69655,22.65443 3.81873,23.75364 2.78369,25.04422 -2.21018,2.75582 -9.82922,7.26436 -15.3824399,9.10248 -2.5490101,0.84373 -2.5688701,0.83278 -3.0423501,-1.67886 -0.60225998,-3.19471 -3.52977,-21.36126 -4.95536,-30.75026 -1.54284,-10.16114 -1.6898,-10.87077 -2.18776,-10.56301 -0.21356,0.13199 -3.1335802,5.82687 -4.26024,8.3087 -1.2779,2.81498 -14.19176,28.62683 -15.01148,30.00451 -2.36851,3.9807 -7.65328,4.18732 -10.1049,0.39507 -0.92818,-1.43575 -11.24047,-21.98607 -16.30534,-32.4933 -2.60908,-5.41263 -3.34745,-6.67821 -3.62975,-6.22147 -0.12328,0.1995 -0.70737,3.47918 -1.28969,7.2417 -3.75706,24.27532 -5.38317,34.27162 -5.76413,35.43436 -0.3379,1.0313 -0.52724,1.06531 -2.42332,0.43517 z"
       id="path4-4-5"
       sodipodi:nodetypes="ssssscssssssssssssssssssssss" /><path
       style="fill:#000000;fill-opacity:1;stroke:#000000;stroke-width:2.05503;stroke-linecap:round;stroke-linejoin:round;stroke-dasharray:none;stroke-opacity:1"
       d="m -24.086758,551.71345 16.9447898,15.02582 -22.1875198,4.54034 z"
       id="path6-3-7" /><text
       xml:space="preserve"
       style="font-weight:500;font-size:37.3659px;font-family:Lexend;-inkscape-font-specification:'Lexend Medium';text-align:start;writing-mode:lr-tb;direction:ltr;text-anchor:start;fill:#000000;fill-opacity:1;stroke:none;stroke-width:0.700611;stroke-opacity:1"
       x="-104.27487"
       y="741.67474"
       id="text1-2-5"
       inkscape:export-filename="text1.svg"
       inkscape:export-xdpi="96"
       inkscape:export-ydpi="96"><tspan
         sodipodi:role="line"
         id="tspan1-2-4"
         style="font-style:normal;font-variant:normal;font-weight:500;font-stretch:normal;font-family:Urbanist;-inkscape-font-specification:'Urbanist Medium';fill:#000000;fill-opacity:1;stroke:none;stroke-width:0.700611;stroke-opacity:1"
         x="-104.27487"
         y="741.67474"><tspan
           style="font-style:normal;font-variant:normal;font-weight:bold;font-stretch:normal;font-family:Urbanist;-inkscape-font-specification:'Urbanist Bold';fill:#000000;fill-opacity:1;stroke:none;stroke-width:0.700611;stroke-opacity:1"
           id="tspan2-1-1">marca</tspan><tspan
           style="font-style:normal;font-variant:normal;font-weight:800;font-stretch:normal;font-family:Sora;-inkscape-font-specification:'Sora Ultra-Bold';fill:#000000;fill-opacity:1;stroke:none;stroke-width:0.700611;stroke-opacity:1"
           id="tspan3-6-2">Aí</tspan></tspan></text><g
       id="g2-6"
       transform="matrix(0.83677438,0,0,0.83677438,-74.340057,108.11097)"><path
         id="path5-2-5"
         style="fill:none;fill-opacity:1;stroke:#fd953a;stroke-width:10.8511;stroke-linecap:round;stroke-linejoin:round;stroke-dasharray:none;stroke-opacity:1"
         d="m 62.45678,345.71469 c -4.93882,-1.10832 -5.54022,-0.90872 -10.60187,-0.90873 -37.95192,-1.5e-4 -68.71814,30.76584 -68.71829,68.71776 -1.4e-4,37.95212 30.76617,68.71843 68.71829,68.71829 5.1465,6e-5 8.02727,-0.12815 13.0447,-1.27352"
         sodipodi:nodetypes="csscc" /><g
         id="g1-0"><path
           style="fill:#fd953a;fill-opacity:1;stroke:#fd953a;stroke-width:6.27063;stroke-linejoin:bevel;stroke-dasharray:none;stroke-opacity:1"
           d="M 126.035,413.24957 H 114.52361"
           id="path2-55-2" /><path
           style="fill:#fd953a;fill-opacity:1;stroke:#fd953a;stroke-width:6.27063;stroke-linejoin:bevel;stroke-dasharray:none;stroke-opacity:1"
           d="M 126.035,413.24957 H 114.52361"
           id="path2-5-1-8"
           inkscape:transform-center-x="-68.214386"
           inkscape:transform-center-y="-3.1235362e-06" /><path
           style="fill:#fd953a;fill-opacity:1;stroke:#fd953a;stroke-width:6.27063;stroke-linejoin:bevel;stroke-dasharray:none;stroke-opacity:1"
           d="m 120.39018,384.86129 -10.63572,4.40382"
           id="path2-5-2-7-6"
           inkscape:transform-center-x="-63.025311"
           inkscape:transform-center-y="-26.096218" /><path
           style="fill:#fd953a;fill-opacity:1;stroke:#fd953a;stroke-width:6.27063;stroke-linejoin:bevel;stroke-dasharray:none;stroke-opacity:1"
           d="m 105.65531,362.19155 -8.34265,7.93174"
           id="path2-5-2-8-1-0"
           inkscape:transform-center-x="-49.436986"
           inkscape:transform-center-y="-47.001988" /><path
           style="fill:#fd953a;fill-opacity:1;stroke:#fd953a;stroke-width:6.27063;stroke-linejoin:bevel;stroke-dasharray:none;stroke-opacity:1"
           d="M 84.14229,346.47887 79.1721,356.862"
           id="path2-5-2-8-0-1-2"
           inkscape:transform-center-x="-29.452406"
           inkscape:transform-center-y="-61.528515" /><path
           style="fill:#fd953a;fill-opacity:1;stroke:#fd953a;stroke-width:6.27063;stroke-linejoin:bevel;stroke-dasharray:none;stroke-opacity:1"
           d="M 126.12173,413.88004 H 114.61034"
           id="path2-9-5-4" /><path
           style="fill:#fd953a;fill-opacity:1;stroke:#fd953a;stroke-width:6.27063;stroke-linejoin:bevel;stroke-dasharray:none;stroke-opacity:1"
           d="M 126.12173,413.88004 H 114.61034"
           id="path2-5-6-2-8"
           inkscape:transform-center-x="-68.214386"
           inkscape:transform-center-y="3.1128594e-06" /><path
           style="fill:#fd953a;fill-opacity:1;stroke:#fd953a;stroke-width:6.27063;stroke-linejoin:bevel;stroke-dasharray:none;stroke-opacity:1"
           d="m 120.47691,442.26814 -10.63572,-4.40379"
           id="path2-5-2-9-7-6"
           inkscape:transform-center-x="-63.025311"
           inkscape:transform-center-y="26.096044" /><path
           style="fill:#fd953a;fill-opacity:1;stroke:#fd953a;stroke-width:6.27063;stroke-linejoin:bevel;stroke-dasharray:none;stroke-opacity:1"
           d="m 105.74204,464.93773 -8.34265,-7.93168"
           id="path2-5-2-8-4-6-5"
           inkscape:transform-center-x="-49.436986"
           inkscape:transform-center-y="47.001675" /><path
           style="fill:#fd953a;fill-opacity:1;stroke:#fd953a;stroke-width:6.27063;stroke-linejoin:bevel;stroke-dasharray:none;stroke-opacity:1"
           d="M 84.22902,480.65031 79.25883,470.26724"
           id="path2-5-2-8-0-6-1-0"
           inkscape:transform-center-x="-29.452406"
           inkscape:transform-center-y="61.528106" /><path
           style="fill:url(#radialGradient2-4-7);stroke:none;stroke-width:0.777023;stroke-opacity:1"
           d="m 19.60209,449.70594 c -6.45412,-2.14499 -14.5031302,-7.11499 -15.5273302,-9.58762 -0.36419,-0.87924 7e-5,-3.70287 2.27915,-17.6673 1.27834,-7.83268 1.79672,-11.07127 2.76413,-17.26934 C 12.94786,380.64461 13.16631,379.53044 14.3713,378.38741 l 0.83015,-0.78748 8.05956,0.0679 c 9.27594,0.0782 9.11192,0.0365 10.8302,2.75712 0.75012,1.18773 6.84781,13.37081 9.97278,19.92542 2.19101,4.59564 7.89738,16.04899 8.19373,16.44574 0.2859,0.38278 0.61209,-0.20944 4.92564,-8.94305 15.2199,-30.81559 13.90992,-28.32745 15.49253,-29.42611 1.42073,-0.98626 16.42383,-1.22789 17.66078,-0.28442 1.33927,1.02151 1.45612,1.51186 3.57749,15.01228 1.76265,11.21752 2.10775,13.37394 3.80007,23.74534 3.53971,21.69326 3.65671,22.74584 2.66558,23.98166 -2.11641,2.6389 -9.41219,6.95615 -14.7298,8.71629 -2.44086,0.80793 -2.45988,0.79744 -2.91327,-1.60763 -0.57671,-3.05917 -3.38001,-20.45496 -4.74512,-29.44561 -1.47738,-9.73003 -1.61811,-10.40955 -2.09494,-10.11485 -0.2045,0.12639 -3.00063,5.57965 -4.07949,7.95618 -1.22368,2.69555 -13.58964,27.41227 -14.37458,28.7315 -2.26802,3.81181 -7.32857,4.00966 -9.67618,0.37831 -0.8888,-1.37484 -10.76356,-21.05326 -15.61354,-31.1147 -2.49839,-5.18298 -3.20543,-6.39487 -3.47575,-5.9575 -0.11805,0.19103 -0.67736,3.33156 -1.23498,6.93445 -3.59765,23.24538 -5.15477,32.81756 -5.51957,33.93097 -0.32356,0.98755 -0.50487,1.02011 -2.3205,0.41671 z"
           id="path4-4-9"
           sodipodi:nodetypes="ssssscssssssssssssssssssssss" /><path
           style="fill:#fd953a;fill-opacity:1;stroke:#fd953a;stroke-width:1.96784;stroke-linecap:round;stroke-linejoin:round;stroke-dasharray:none;stroke-opacity:1"
           d="m 58.43843,335.04714 16.22586,14.38831 -21.24616,4.34771 z"
           id="path6-3-0" /></g></g><g
       id="g2-6-6"
       transform="matrix(0.47526559,0,0,0.47526559,139.29959,256.6424)"><path
         id="path5-2-5-1"
         style="fill:none;fill-opacity:1;stroke:#fd953a;stroke-width:10.8511;stroke-linecap:round;stroke-linejoin:round;stroke-dasharray:none;stroke-opacity:1"
         d="m 62.45678,345.71469 c -4.93882,-1.10832 -5.54022,-0.90872 -10.60187,-0.90873 -37.95192,-1.5e-4 -68.71814,30.76584 -68.71829,68.71776 -1.4e-4,37.95212 30.76617,68.71843 68.71829,68.71829 5.1465,6e-5 8.02727,-0.12815 13.0447,-1.27352"
         sodipodi:nodetypes="csscc" /><g
         id="g1-0-8"><path
           style="fill:#fd953a;fill-opacity:1;stroke:#fd953a;stroke-width:6.27063;stroke-linejoin:bevel;stroke-dasharray:none;stroke-opacity:1"
           d="M 126.035,413.24957 H 114.52361"
           id="path2-55-2-4" /><path
           style="fill:#fd953a;fill-opacity:1;stroke:#fd953a;stroke-width:6.27063;stroke-linejoin:bevel;stroke-dasharray:none;stroke-opacity:1"
           d="M 126.035,413.24957 H 114.52361"
           id="path2-5-1-8-9"
           inkscape:transform-center-x="-68.214386"
           inkscape:transform-center-y="-3.1235362e-06" /><path
           style="fill:#fd953a;fill-opacity:1;stroke:#fd953a;stroke-width:6.27063;stroke-linejoin:bevel;stroke-dasharray:none;stroke-opacity:1"
           d="m 120.39018,384.86129 -10.63572,4.40382"
           id="path2-5-2-7-6-6"
           inkscape:transform-center-x="-63.025311"
           inkscape:transform-center-y="-26.096218" /><path
           style="fill:#fd953a;fill-opacity:1;stroke:#fd953a;stroke-width:6.27063;stroke-linejoin:bevel;stroke-dasharray:none;stroke-opacity:1"
           d="m 105.65531,362.19155 -8.34265,7.93174"
           id="path2-5-2-8-1-0-3"
           inkscape:transform-center-x="-49.436986"
           inkscape:transform-center-y="-47.001988" /><path
           style="fill:#fd953a;fill-opacity:1;stroke:#fd953a;stroke-width:6.27063;stroke-linejoin:bevel;stroke-dasharray:none;stroke-opacity:1"
           d="M 84.14229,346.47887 79.1721,356.862"
           id="path2-5-2-8-0-1-2-7"
           inkscape:transform-center-x="-29.452406"
           inkscape:transform-center-y="-61.528515" /><path
           style="fill:#fd953a;fill-opacity:1;stroke:#fd953a;stroke-width:6.27063;stroke-linejoin:bevel;stroke-dasharray:none;stroke-opacity:1"
           d="M 126.12173,413.88004 H 114.61034"
           id="path2-9-5-4-8" /><path
           style="fill:#fd953a;fill-opacity:1;stroke:#fd953a;stroke-width:6.27063;stroke-linejoin:bevel;stroke-dasharray:none;stroke-opacity:1"
           d="M 126.12173,413.88004 H 114.61034"
           id="path2-5-6-2-8-8"
           inkscape:transform-center-x="-68.214386"
           inkscape:transform-center-y="3.1128594e-06" /><path
           style="fill:#fd953a;fill-opacity:1;stroke:#fd953a;stroke-width:6.27063;stroke-linejoin:bevel;stroke-dasharray:none;stroke-opacity:1"
           d="m 120.47691,442.26814 -10.63572,-4.40379"
           id="path2-5-2-9-7-6-2"
           inkscape:transform-center-x="-63.025311"
           inkscape:transform-center-y="26.096044" /><path
           style="fill:#fd953a;fill-opacity:1;stroke:#fd953a;stroke-width:6.27063;stroke-linejoin:bevel;stroke-dasharray:none;stroke-opacity:1"
           d="m 105.74204,464.93773 -8.34265,-7.93168"
           id="path2-5-2-8-4-6-5-9"
           inkscape:transform-center-x="-49.436986"
           inkscape:transform-center-y="47.001675" /><path
           style="fill:#fd953a;fill-opacity:1;stroke:#fd953a;stroke-width:6.27063;stroke-linejoin:bevel;stroke-dasharray:none;stroke-opacity:1"
           d="M 84.22902,480.65031 79.25883,470.26724"
           id="path2-5-2-8-0-6-1-0-1"
           inkscape:transform-center-x="-29.452406"
           inkscape:transform-center-y="61.528106" /><path
           style="fill:url(#radialGradient2-4-7-3);stroke:none;stroke-width:0.777023;stroke-opacity:1"
           d="m 19.60209,449.70594 c -6.45412,-2.14499 -14.5031302,-7.11499 -15.5273302,-9.58762 -0.36419,-0.87924 7e-5,-3.70287 2.27915,-17.6673 1.27834,-7.83268 1.79672,-11.07127 2.76413,-17.26934 C 12.94786,380.64461 13.16631,379.53044 14.3713,378.38741 l 0.83015,-0.78748 8.05956,0.0679 c 9.27594,0.0782 9.11192,0.0365 10.8302,2.75712 0.75012,1.18773 6.84781,13.37081 9.97278,19.92542 2.19101,4.59564 7.89738,16.04899 8.19373,16.44574 0.2859,0.38278 0.61209,-0.20944 4.92564,-8.94305 15.2199,-30.81559 13.90992,-28.32745 15.49253,-29.42611 1.42073,-0.98626 16.42383,-1.22789 17.66078,-0.28442 1.33927,1.02151 1.45612,1.51186 3.57749,15.01228 1.76265,11.21752 2.10775,13.37394 3.80007,23.74534 3.53971,21.69326 3.65671,22.74584 2.66558,23.98166 -2.11641,2.6389 -9.41219,6.95615 -14.7298,8.71629 -2.44086,0.80793 -2.45988,0.79744 -2.91327,-1.60763 -0.57671,-3.05917 -3.38001,-20.45496 -4.74512,-29.44561 -1.47738,-9.73003 -1.61811,-10.40955 -2.09494,-10.11485 -0.2045,0.12639 -3.00063,5.57965 -4.07949,7.95618 -1.22368,2.69555 -13.58964,27.41227 -14.37458,28.7315 -2.26802,3.81181 -7.32857,4.00966 -9.67618,0.37831 -0.8888,-1.37484 -10.76356,-21.05326 -15.61354,-31.1147 -2.49839,-5.18298 -3.20543,-6.39487 -3.47575,-5.9575 -0.11805,0.19103 -0.67736,3.33156 -1.23498,6.93445 -3.59765,23.24538 -5.15477,32.81756 -5.51957,33.93097 -0.32356,0.98755 -0.50487,1.02011 -2.3205,0.41671 z"
           id="path4-4-9-3"
           sodipodi:nodetypes="ssssscssssssssssssssssssssss" /><path
           style="fill:#fd953a;fill-opacity:1;stroke:#fd953a;stroke-width:1.96784;stroke-linecap:round;stroke-linejoin:round;stroke-dasharray:none;stroke-opacity:1"
           d="m 58.43843,335.04714 16.22586,14.38831 -21.24616,4.34771 z"
           id="path6-3-0-5" /></g></g></g></svg>
