<?xml version="1.0" encoding="UTF-8" standalone="no"?>
<!-- Created with Inkscape (http://www.inkscape.org/) -->

<svg
   width="226.86525mm"
   height="226.86525mm"
   viewBox="0 0 226.86525 226.86525"
   version="1.1"
   id="svg1"
   xml:space="preserve"
   inkscape:version="1.4.3 (0d15f75, 2025-12-25)"
   sodipodi:docname="marcaai.svg"
   xmlns:inkscape="http://www.inkscape.org/namespaces/inkscape"
   xmlns:sodipodi="http://sodipodi.sourceforge.net/DTD/sodipodi-0.dtd"
   xmlns:xlink="http://www.w3.org/1999/xlink"
   xmlns="http://www.w3.org/2000/svg"
   xmlns:svg="http://www.w3.org/2000/svg"><sodipodi:namedview
     id="namedview1"
     pagecolor="#505050"
     bordercolor="#eeeeee"
     borderopacity="1"
     inkscape:showpageshadow="0"
     inkscape:pageopacity="0"
     inkscape:pagecheckerboard="0"
     inkscape:deskcolor="#505050"
     inkscape:document-units="mm"
     inkscape:zoom="0.72774481"
     inkscape:cx="477.50255"
     inkscape:cy="359.32925"
     inkscape:window-width="1920"
     inkscape:window-height="991"
     inkscape:window-x="-9"
     inkscape:window-y="-9"
     inkscape:window-maximized="1"
     inkscape:current-layer="layer1"><inkscape:page
       x="0"
       y="0"
       width="226.86525"
       height="226.86525"
       id="page2"
       margin="0"
       bleed="0" /></sodipodi:namedview><defs
     id="defs1"><linearGradient
       id="linearGradient1"
       inkscape:collect="always"><stop
         style="stop-color:#5696fc;stop-opacity:1;"
         offset="0"
         id="stop1" /><stop
         style="stop-color:#5696fc;stop-opacity:1;"
         offset="1"
         id="stop2" /></linearGradient><radialGradient
       inkscape:collect="always"
       xlink:href="#linearGradient1"
       id="radialGradient2"
       cx="151.35912"
       cy="86.912033"
       fx="151.35912"
       fy="86.912033"
       r="48.481598"
       gradientTransform="matrix(0.76003029,0.41244793,-0.45706887,0.84225464,76.046387,-47.164301)"
       gradientUnits="userSpaceOnUse" /></defs><g
     inkscape:label="Camada 1"
     inkscape:groupmode="layer"
     id="layer1"
     transform="translate(-2.5503519,-27.267458)"><path
       style="fill:#fd953a;fill-opacity:1;stroke:#fd953a;stroke-width:6.27063;stroke-linejoin:bevel;stroke-dasharray:none;stroke-opacity:1"
       d="M 187.05744,123.57255 H 175.54605"
       id="path2" /><path
       style="fill:#fd953a;fill-opacity:1;stroke:#fd953a;stroke-width:6.27063;stroke-linejoin:bevel;stroke-dasharray:none;stroke-opacity:1"
       d="M 187.05744,123.57255 H 175.54605"
       id="path2-5"
       inkscape:transform-center-x="-68.214386"
       inkscape:transform-center-y="-3.1235362e-06" /><path
       style="fill:#fd953a;fill-opacity:1;stroke:#fd953a;stroke-width:6.27063;stroke-linejoin:bevel;stroke-dasharray:none;stroke-opacity:1"
       d="M 181.41262,95.184267 170.7769,99.588085"
       id="path2-5-2"
       inkscape:transform-center-x="-63.025311"
       inkscape:transform-center-y="-26.096218" /><path
       style="fill:#fd953a;fill-opacity:1;stroke:#fd953a;stroke-width:6.27063;stroke-linejoin:bevel;stroke-dasharray:none;stroke-opacity:1"
       d="m 166.67775,72.514534 -8.34265,7.931733"
       id="path2-5-2-8"
       inkscape:transform-center-x="-49.436986"
       inkscape:transform-center-y="-47.001988" /><path
       style="fill:#fd953a;fill-opacity:1;stroke:#fd953a;stroke-width:6.27063;stroke-linejoin:bevel;stroke-dasharray:none;stroke-opacity:1"
       d="m 145.16473,56.80185 -4.97019,10.383131"
       id="path2-5-2-8-0"
       inkscape:transform-center-x="-29.452406"
       inkscape:transform-center-y="-61.528515" /><path
       style="fill:#fd953a;fill-opacity:1;stroke:#fd953a;stroke-width:6.27063;stroke-linejoin:bevel;stroke-dasharray:none;stroke-opacity:1"
       d="M 187.14417,124.20302 H 175.63278"
       id="path2-9" /><path
       style="fill:#fd953a;fill-opacity:1;stroke:#fd953a;stroke-width:6.27063;stroke-linejoin:bevel;stroke-dasharray:none;stroke-opacity:1"
       d="M 187.14417,124.20302 H 175.63278"
       id="path2-5-6"
       inkscape:transform-center-x="-68.214386"
       inkscape:transform-center-y="3.1128594e-06" /><path
       style="fill:#fd953a;fill-opacity:1;stroke:#fd953a;stroke-width:6.27063;stroke-linejoin:bevel;stroke-dasharray:none;stroke-opacity:1"
       d="m 181.49935,152.59112 -10.63572,-4.40379"
       id="path2-5-2-9"
       inkscape:transform-center-x="-63.025311"
       inkscape:transform-center-y="26.096044" /><path
       style="fill:#fd953a;fill-opacity:1;stroke:#fd953a;stroke-width:6.27063;stroke-linejoin:bevel;stroke-dasharray:none;stroke-opacity:1"
       d="m 166.76448,175.26071 -8.34265,-7.93168"
       id="path2-5-2-8-4"
       inkscape:transform-center-x="-49.436986"
       inkscape:transform-center-y="47.001675" /><path
       style="fill:#fd953a;fill-opacity:1;stroke:#fd953a;stroke-width:6.27063;stroke-linejoin:bevel;stroke-dasharray:none;stroke-opacity:1"
       d="m 145.25146,190.97329 -4.97019,-10.38307"
       id="path2-5-2-8-0-6"
       inkscape:transform-center-x="-29.452406"
       inkscape:transform-center-y="61.528106" /><path
       style="opacity:1;fill:url(#radialGradient2);stroke:none;stroke-width:0.777023;stroke-opacity:1"
       d="m 80.624524,160.02892 c -6.454118,-2.14499 -14.503122,-7.11499 -15.527325,-9.58762 -0.36419,-0.87924 7e-5,-3.70287 2.27915,-17.6673 1.278342,-7.83268 1.796718,-11.07127 2.764127,-17.26934 3.829823,-24.537073 4.048268,-25.651239 5.25326,-26.79427 l 0.830148,-0.787475 8.05956,0.06791 c 9.27594,0.07816 9.11192,0.03645 10.8302,2.757119 0.75012,1.187727 6.847816,13.370806 9.972786,19.925416 2.19101,4.59564 7.89738,16.04899 8.19373,16.44574 0.2859,0.38278 0.61209,-0.20944 4.92564,-8.94305 15.2199,-30.815585 13.90992,-28.327448 15.49253,-29.426105 1.42073,-0.986267 16.42383,-1.22789 17.66078,-0.284428 1.33927,1.021513 1.45612,1.511861 3.57749,15.012283 1.76265,11.21752 2.10775,13.37394 3.80007,23.74534 3.53971,21.69326 3.65671,22.74584 2.66558,23.98166 -2.11641,2.6389 -9.41219,6.95615 -14.7298,8.71629 -2.44086,0.80793 -2.45988,0.79744 -2.91327,-1.60763 -0.57671,-3.05917 -3.38001,-20.45496 -4.74512,-29.44561 -1.47738,-9.73003 -1.61811,-10.40955 -2.09494,-10.11485 -0.2045,0.12639 -3.00063,5.57965 -4.07949,7.95618 -1.22368,2.69555 -13.58964,27.41227 -14.37458,28.7315 -2.26802,3.81181 -7.32857,4.00966 -9.67618,0.37831 -0.8888,-1.37484 -10.763566,-21.05326 -15.613546,-31.1147 -2.49839,-5.18298 -3.20543,-6.39487 -3.47575,-5.9575 -0.11805,0.19103 -0.67736,3.33156 -1.23498,6.93445 -3.59765,23.24538 -5.15477,32.81756 -5.51957,33.93097 -0.32356,0.98755 -0.50487,1.02011 -2.3205,0.41671 z"
       id="path4"
       sodipodi:nodetypes="ssssscssssssssssssssssssssss" /><path
       id="path5"
       style="opacity:1;fill:none;fill-opacity:1;stroke:#fd953a;stroke-width:10.8511;stroke-linecap:round;stroke-linejoin:round;stroke-dasharray:none;stroke-opacity:1"
       d="M 123.47922,56.037674 C 118.5404,54.929351 117.939,55.128951 112.87735,55.128935 74.925433,55.128794 44.15921,85.894783 44.159062,123.8467 c -1.42e-4,37.95212 30.766166,68.71843 68.718288,68.71829 5.1465,6e-5 8.02727,-0.12815 13.0447,-1.27352"
       sodipodi:nodetypes="csscc" /><path
       style="opacity:1;fill:#fd953a;fill-opacity:1;stroke:#fd953a;stroke-width:1.96784;stroke-linecap:round;stroke-linejoin:round;stroke-dasharray:none;stroke-opacity:1"
       d="m 119.46087,45.37012 16.22586,14.388309 -21.24616,4.347707 z"
       id="path6" /><text
       xml:space="preserve"
       style="font-weight:500;font-size:35.7806px;font-family:Lexend;-inkscape-font-specification:'Lexend Medium';text-align:start;writing-mode:lr-tb;direction:ltr;text-anchor:start;fill:#5696fc;stroke:none;stroke-width:0.670886;stroke-opacity:1"
       x="42.674938"
       y="227.27193"
       id="text1"
       inkscape:export-filename="text1.svg"
       inkscape:export-xdpi="96"
       inkscape:export-ydpi="96"><tspan
         sodipodi:role="line"
         id="tspan1"
         style="font-style:normal;font-variant:normal;font-weight:500;font-stretch:normal;font-family:Urbanist;-inkscape-font-specification:'Urbanist Medium';stroke:none;stroke-width:0.670886;stroke-opacity:1"
         x="42.674938"
         y="227.27193"><tspan
           style="font-style:normal;font-variant:normal;font-weight:bold;font-stretch:normal;font-family:Urbanist;-inkscape-font-specification:'Urbanist Bold';stroke:none;stroke-width:0.670886;stroke-opacity:1"
           id="tspan2">marca</tspan><tspan
           style="font-style:normal;font-variant:normal;font-weight:800;font-stretch:normal;font-family:Sora;-inkscape-font-specification:'Sora Ultra-Bold';fill:#fd953a;fill-opacity:1;stroke:none;stroke-width:0.670886;stroke-opacity:1"
           id="tspan3">Aí</tspan></tspan></text></g></svg>
